<svg xmlns="http://www.w3.org/2000/svg" xmlns:xlink="http://www.w3.org/1999/xlink" width="40" zoomAndPan="magnify" viewBox="0 0 30 30.000001" height="40" preserveAspectRatio="xMidYMid meet" version="1.0"><defs><g/><clipPath id="id1"><path d="M 0.484375 0 L 29.515625 0 L 29.515625 29.03125 L 0.484375 29.03125 Z M 0.484375 0 " clip-rule="nonzero"/></clipPath></defs><g clip-path="url(#id1)"><path fill="rgb(100%, 100%, 100%)" d="M 0.484375 0 L 29.515625 0 L 29.515625 36.289062 L 0.484375 36.289062 Z M 0.484375 0 " fill-opacity="1" fill-rule="nonzero"/><path fill="rgb(99.21875%, 99.609375%, 98.429871%)" d="M 0.484375 0 L 29.515625 0 L 29.515625 29.03125 L 0.484375 29.03125 Z M 0.484375 0 " fill-opacity="1" fill-rule="nonzero"/><path fill="rgb(100%, 100%, 100%)" d="M 0.484375 0 L 29.515625 0 L 29.515625 29.03125 L 0.484375 29.03125 Z M 0.484375 0 " fill-opacity="1" fill-rule="nonzero"/><path fill="rgb(99.21875%, 99.609375%, 98.429871%)" d="M 0.484375 0 L 29.515625 0 L 29.515625 29.03125 L 0.484375 29.03125 Z M 0.484375 0 " fill-opacity="1" fill-rule="nonzero"/></g><g fill="rgb(45.489502%, 77.249146%, 53.729248%)" fill-opacity="1"><g transform="translate(3.411805, 21.632121)"><g><path d="M 10.140625 -13.28125 C 10.484375 -13.28125 10.765625 -13.175781 10.984375 -12.96875 C 11.203125 -12.769531 11.3125 -12.503906 11.3125 -12.171875 C 11.3125 -11.847656 11.203125 -11.585938 10.984375 -11.390625 C 10.765625 -11.191406 10.484375 -11.09375 10.140625 -11.09375 L 7.171875 -11.09375 L 7.171875 -1.15625 C 7.171875 -0.820312 7.050781 -0.546875 6.8125 -0.328125 C 6.570312 -0.109375 6.273438 0 5.921875 0 C 5.566406 0 5.273438 -0.109375 5.046875 -0.328125 C 4.816406 -0.546875 4.703125 -0.820312 4.703125 -1.15625 L 4.703125 -11.09375 L 1.71875 -11.09375 C 1.382812 -11.09375 1.109375 -11.191406 0.890625 -11.390625 C 0.671875 -11.597656 0.5625 -11.867188 0.5625 -12.203125 C 0.5625 -12.515625 0.671875 -12.769531 0.890625 -12.96875 C 1.117188 -13.175781 1.394531 -13.28125 1.71875 -13.28125 Z M 10.140625 -13.28125 "/></g></g></g><g fill="rgb(42.749023%, 54.508972%, 52.159119%)" fill-opacity="1"><g transform="translate(15.27179, 21.632121)"><g><path d="M 5.6875 0.1875 C 4.78125 0.1875 3.972656 0.0703125 3.265625 -0.15625 C 2.554688 -0.382812 1.890625 -0.769531 1.265625 -1.3125 C 0.929688 -1.613281 0.765625 -1.945312 0.765625 -2.3125 C 0.765625 -2.601562 0.867188 -2.859375 1.078125 -3.078125 C 1.296875 -3.304688 1.554688 -3.421875 1.859375 -3.421875 C 2.097656 -3.421875 2.3125 -3.34375 2.5 -3.1875 C 3.007812 -2.769531 3.503906 -2.460938 3.984375 -2.265625 C 4.460938 -2.078125 5.03125 -1.984375 5.6875 -1.984375 C 6.394531 -1.984375 7.003906 -2.140625 7.515625 -2.453125 C 8.035156 -2.773438 8.296875 -3.171875 8.296875 -3.640625 C 8.296875 -4.210938 8.039062 -4.660156 7.53125 -4.984375 C 7.019531 -5.304688 6.21875 -5.546875 5.125 -5.703125 C 2.351562 -6.109375 0.96875 -7.398438 0.96875 -9.578125 C 0.96875 -10.378906 1.175781 -11.070312 1.59375 -11.65625 C 2.007812 -12.238281 2.578125 -12.6875 3.296875 -13 C 4.015625 -13.3125 4.816406 -13.46875 5.703125 -13.46875 C 6.503906 -13.46875 7.253906 -13.347656 7.953125 -13.109375 C 8.660156 -12.867188 9.25 -12.550781 9.71875 -12.15625 C 10.082031 -11.863281 10.265625 -11.53125 10.265625 -11.15625 C 10.265625 -10.863281 10.15625 -10.601562 9.9375 -10.375 C 9.726562 -10.15625 9.476562 -10.046875 9.1875 -10.046875 C 8.988281 -10.046875 8.816406 -10.101562 8.671875 -10.21875 C 8.335938 -10.488281 7.875 -10.734375 7.28125 -10.953125 C 6.695312 -11.171875 6.171875 -11.28125 5.703125 -11.28125 C 4.910156 -11.28125 4.296875 -11.128906 3.859375 -10.828125 C 3.421875 -10.535156 3.203125 -10.148438 3.203125 -9.671875 C 3.203125 -9.128906 3.425781 -8.71875 3.875 -8.4375 C 4.320312 -8.164062 5.03125 -7.941406 6 -7.765625 C 7.082031 -7.566406 7.945312 -7.316406 8.59375 -7.015625 C 9.25 -6.722656 9.738281 -6.320312 10.0625 -5.8125 C 10.394531 -5.300781 10.5625 -4.625 10.5625 -3.78125 C 10.5625 -2.976562 10.335938 -2.273438 9.890625 -1.671875 C 9.441406 -1.078125 8.84375 -0.617188 8.09375 -0.296875 C 7.351562 0.0234375 6.550781 0.1875 5.6875 0.1875 Z M 5.6875 0.1875 "/></g></g></g></svg>