<svg xmlns="http://www.w3.org/2000/svg" xmlns:xlink="http://www.w3.org/1999/xlink" width="100" zoomAndPan="magnify" viewBox="0 0 75 30.000001" height="40" preserveAspectRatio="xMidYMid meet" version="1.0"><defs><g/></defs><g fill="rgb(45.489502%, 77.249146%, 53.729248%)" fill-opacity="1"><g transform="translate(4.19833, 18.145163)"><g><path d="M 5.890625 -7.703125 C 6.085938 -7.703125 6.25 -7.640625 6.375 -7.515625 C 6.5 -7.398438 6.5625 -7.25 6.5625 -7.0625 C 6.5625 -6.875 6.5 -6.722656 6.375 -6.609375 C 6.25 -6.492188 6.085938 -6.4375 5.890625 -6.4375 L 4.15625 -6.4375 L 4.15625 -0.671875 C 4.15625 -0.484375 4.082031 -0.320312 3.9375 -0.1875 C 3.800781 -0.0625 3.632812 0 3.4375 0 C 3.226562 0 3.054688 -0.0625 2.921875 -0.1875 C 2.796875 -0.320312 2.734375 -0.484375 2.734375 -0.671875 L 2.734375 -6.4375 L 1 -6.4375 C 0.800781 -6.4375 0.640625 -6.492188 0.515625 -6.609375 C 0.390625 -6.722656 0.328125 -6.878906 0.328125 -7.078125 C 0.328125 -7.253906 0.390625 -7.398438 0.515625 -7.515625 C 0.648438 -7.640625 0.8125 -7.703125 1 -7.703125 Z M 5.890625 -7.703125 "/></g></g></g><g fill="rgb(45.489502%, 77.249146%, 53.729248%)" fill-opacity="1"><g transform="translate(11.07751, 18.145163)"><g><path d="M 5.1875 -1.265625 C 5.375 -1.265625 5.53125 -1.195312 5.65625 -1.0625 C 5.789062 -0.9375 5.859375 -0.789062 5.859375 -0.625 C 5.859375 -0.445312 5.789062 -0.296875 5.65625 -0.171875 C 5.53125 -0.0546875 5.375 0 5.1875 0 L 1.5 0 C 1.300781 0 1.140625 -0.0625 1.015625 -0.1875 C 0.890625 -0.320312 0.828125 -0.484375 0.828125 -0.671875 L 0.828125 -7.03125 C 0.828125 -7.21875 0.890625 -7.375 1.015625 -7.5 C 1.140625 -7.632812 1.300781 -7.703125 1.5 -7.703125 L 5.1875 -7.703125 C 5.375 -7.703125 5.53125 -7.640625 5.65625 -7.515625 C 5.789062 -7.398438 5.859375 -7.242188 5.859375 -7.046875 C 5.859375 -6.867188 5.796875 -6.722656 5.671875 -6.609375 C 5.546875 -6.492188 5.382812 -6.4375 5.1875 -6.4375 L 2.203125 -6.4375 L 2.203125 -4.5625 L 4.6875 -4.5625 C 4.875 -4.5625 5.03125 -4.5 5.15625 -4.375 C 5.289062 -4.257812 5.359375 -4.109375 5.359375 -3.921875 C 5.359375 -3.734375 5.296875 -3.582031 5.171875 -3.46875 C 5.046875 -3.351562 4.882812 -3.296875 4.6875 -3.296875 L 2.203125 -3.296875 L 2.203125 -1.265625 Z M 5.1875 -1.265625 "/></g></g></g><g fill="rgb(45.489502%, 77.249146%, 53.729248%)" fill-opacity="1"><g transform="translate(17.363274, 18.145163)"><g><path d="M 6.21875 -7.328125 C 6.445312 -7.210938 6.5625 -7.023438 6.5625 -6.765625 C 6.5625 -6.609375 6.503906 -6.457031 6.390625 -6.3125 C 6.273438 -6.15625 6.125 -6.078125 5.9375 -6.078125 C 5.8125 -6.078125 5.6875 -6.113281 5.5625 -6.1875 C 5.207031 -6.351562 4.820312 -6.4375 4.40625 -6.4375 C 3.882812 -6.4375 3.429688 -6.328125 3.046875 -6.109375 C 2.671875 -5.890625 2.378906 -5.582031 2.171875 -5.1875 C 1.972656 -4.800781 1.875 -4.351562 1.875 -3.84375 C 1.875 -2.976562 2.101562 -2.320312 2.5625 -1.875 C 3.03125 -1.425781 3.644531 -1.203125 4.40625 -1.203125 C 4.851562 -1.203125 5.238281 -1.289062 5.5625 -1.46875 C 5.695312 -1.519531 5.816406 -1.546875 5.921875 -1.546875 C 6.109375 -1.546875 6.269531 -1.46875 6.40625 -1.3125 C 6.507812 -1.164062 6.5625 -1.015625 6.5625 -0.859375 C 6.5625 -0.742188 6.53125 -0.632812 6.46875 -0.53125 C 6.414062 -0.4375 6.332031 -0.363281 6.21875 -0.3125 C 5.65625 -0.03125 5.050781 0.109375 4.40625 0.109375 C 3.6875 0.109375 3.023438 -0.0390625 2.421875 -0.34375 C 1.816406 -0.644531 1.332031 -1.09375 0.96875 -1.6875 C 0.613281 -2.28125 0.4375 -3 0.4375 -3.84375 C 0.4375 -4.59375 0.609375 -5.265625 0.953125 -5.859375 C 1.296875 -6.453125 1.765625 -6.914062 2.359375 -7.25 C 2.960938 -7.582031 3.644531 -7.75 4.40625 -7.75 C 5.050781 -7.75 5.65625 -7.609375 6.21875 -7.328125 Z M 6.21875 -7.328125 "/></g></g></g><g fill="rgb(45.489502%, 77.249146%, 53.729248%)" fill-opacity="1"><g transform="translate(24.25344, 18.145163)"><g><path d="M 6.40625 -7.703125 C 6.601562 -7.703125 6.765625 -7.640625 6.890625 -7.515625 C 7.015625 -7.390625 7.078125 -7.226562 7.078125 -7.03125 L 7.078125 -0.671875 C 7.078125 -0.484375 7.007812 -0.320312 6.875 -0.1875 C 6.75 -0.0625 6.582031 0 6.375 0 C 6.195312 0 6.039062 -0.0625 5.90625 -0.1875 C 5.769531 -0.320312 5.703125 -0.484375 5.703125 -0.671875 L 5.703125 -3.234375 L 2.203125 -3.234375 L 2.203125 -0.671875 C 2.203125 -0.484375 2.128906 -0.320312 1.984375 -0.1875 C 1.847656 -0.0625 1.6875 0 1.5 0 C 1.300781 0 1.140625 -0.0625 1.015625 -0.1875 C 0.890625 -0.320312 0.828125 -0.484375 0.828125 -0.671875 L 0.828125 -7.03125 C 0.828125 -7.21875 0.890625 -7.375 1.015625 -7.5 C 1.148438 -7.632812 1.320312 -7.703125 1.53125 -7.703125 C 1.707031 -7.703125 1.863281 -7.632812 2 -7.5 C 2.132812 -7.375 2.203125 -7.21875 2.203125 -7.03125 L 2.203125 -4.5 L 5.703125 -4.5 L 5.703125 -7.03125 C 5.703125 -7.21875 5.769531 -7.375 5.90625 -7.5 C 6.050781 -7.632812 6.21875 -7.703125 6.40625 -7.703125 Z M 6.40625 -7.703125 "/></g></g></g><g fill="rgb(45.489502%, 77.249146%, 53.729248%)" fill-opacity="1"><g transform="translate(32.154604, 18.145163)"><g><path d="M 2.203125 -0.671875 C 2.203125 -0.484375 2.128906 -0.320312 1.984375 -0.1875 C 1.847656 -0.0625 1.6875 0 1.5 0 C 1.300781 0 1.140625 -0.0625 1.015625 -0.1875 C 0.890625 -0.320312 0.828125 -0.484375 0.828125 -0.671875 L 0.828125 -7.03125 C 0.828125 -7.21875 0.890625 -7.375 1.015625 -7.5 C 1.148438 -7.632812 1.320312 -7.703125 1.53125 -7.703125 C 1.707031 -7.703125 1.863281 -7.632812 2 -7.5 C 2.132812 -7.375 2.203125 -7.21875 2.203125 -7.03125 Z M 2.203125 -0.671875 "/></g></g></g><g fill="rgb(45.489502%, 77.249146%, 53.729248%)" fill-opacity="1"><g transform="translate(35.176608, 18.145163)"><g><path d="M 5.1875 -1.265625 C 5.375 -1.265625 5.53125 -1.195312 5.65625 -1.0625 C 5.789062 -0.9375 5.859375 -0.789062 5.859375 -0.625 C 5.859375 -0.445312 5.789062 -0.296875 5.65625 -0.171875 C 5.53125 -0.0546875 5.375 0 5.1875 0 L 1.5 0 C 1.300781 0 1.140625 -0.0625 1.015625 -0.1875 C 0.890625 -0.320312 0.828125 -0.484375 0.828125 -0.671875 L 0.828125 -7.03125 C 0.828125 -7.21875 0.890625 -7.375 1.015625 -7.5 C 1.140625 -7.632812 1.300781 -7.703125 1.5 -7.703125 L 5.1875 -7.703125 C 5.375 -7.703125 5.53125 -7.640625 5.65625 -7.515625 C 5.789062 -7.398438 5.859375 -7.242188 5.859375 -7.046875 C 5.859375 -6.867188 5.796875 -6.722656 5.671875 -6.609375 C 5.546875 -6.492188 5.382812 -6.4375 5.1875 -6.4375 L 2.203125 -6.4375 L 2.203125 -4.5625 L 4.6875 -4.5625 C 4.875 -4.5625 5.03125 -4.5 5.15625 -4.375 C 5.289062 -4.257812 5.359375 -4.109375 5.359375 -3.921875 C 5.359375 -3.734375 5.296875 -3.582031 5.171875 -3.46875 C 5.046875 -3.351562 4.882812 -3.296875 4.6875 -3.296875 L 2.203125 -3.296875 L 2.203125 -1.265625 Z M 5.1875 -1.265625 "/></g></g></g><g fill="rgb(67.449951%, 85.099792%, 69.799805%)" fill-opacity="1"><g transform="translate(41.452614, 18.145163)"><g/></g></g><g fill="rgb(42.749023%, 54.508972%, 52.159119%)" fill-opacity="1"><g transform="translate(44.525951, 18.145163)"><g><path d="M 3.296875 0.109375 C 2.773438 0.109375 2.304688 0.046875 1.890625 -0.078125 C 1.484375 -0.210938 1.097656 -0.441406 0.734375 -0.765625 C 0.535156 -0.929688 0.4375 -1.125 0.4375 -1.34375 C 0.4375 -1.507812 0.5 -1.65625 0.625 -1.78125 C 0.75 -1.914062 0.898438 -1.984375 1.078125 -1.984375 C 1.210938 -1.984375 1.335938 -1.9375 1.453125 -1.84375 C 1.742188 -1.601562 2.03125 -1.425781 2.3125 -1.3125 C 2.59375 -1.207031 2.921875 -1.15625 3.296875 -1.15625 C 3.710938 -1.15625 4.066406 -1.242188 4.359375 -1.421875 C 4.660156 -1.609375 4.8125 -1.835938 4.8125 -2.109375 C 4.8125 -2.441406 4.660156 -2.703125 4.359375 -2.890625 C 4.066406 -3.078125 3.601562 -3.21875 2.96875 -3.3125 C 1.363281 -3.539062 0.5625 -4.289062 0.5625 -5.5625 C 0.5625 -6.019531 0.679688 -6.414062 0.921875 -6.75 C 1.160156 -7.09375 1.488281 -7.351562 1.90625 -7.53125 C 2.332031 -7.71875 2.800781 -7.8125 3.3125 -7.8125 C 3.769531 -7.8125 4.203125 -7.738281 4.609375 -7.59375 C 5.015625 -7.457031 5.351562 -7.273438 5.625 -7.046875 C 5.84375 -6.878906 5.953125 -6.6875 5.953125 -6.46875 C 5.953125 -6.300781 5.890625 -6.148438 5.765625 -6.015625 C 5.640625 -5.890625 5.492188 -5.828125 5.328125 -5.828125 C 5.210938 -5.828125 5.113281 -5.859375 5.03125 -5.921875 C 4.832031 -6.078125 4.5625 -6.21875 4.21875 -6.34375 C 3.882812 -6.476562 3.582031 -6.546875 3.3125 -6.546875 C 2.851562 -6.546875 2.492188 -6.457031 2.234375 -6.28125 C 1.984375 -6.113281 1.859375 -5.890625 1.859375 -5.609375 C 1.859375 -5.296875 1.988281 -5.054688 2.25 -4.890625 C 2.507812 -4.734375 2.914062 -4.601562 3.46875 -4.5 C 4.101562 -4.382812 4.609375 -4.238281 4.984375 -4.0625 C 5.367188 -3.894531 5.65625 -3.660156 5.84375 -3.359375 C 6.03125 -3.066406 6.125 -2.675781 6.125 -2.1875 C 6.125 -1.726562 5.992188 -1.320312 5.734375 -0.96875 C 5.472656 -0.625 5.125 -0.359375 4.6875 -0.171875 C 4.257812 0.015625 3.796875 0.109375 3.296875 0.109375 Z M 3.296875 0.109375 "/></g></g></g><g fill="rgb(42.749023%, 54.508972%, 52.159119%)" fill-opacity="1"><g transform="translate(51.086439, 18.145163)"><g><path d="M 6.859375 -0.859375 C 6.898438 -0.765625 6.921875 -0.675781 6.921875 -0.59375 C 6.921875 -0.40625 6.859375 -0.25 6.734375 -0.125 C 6.609375 0 6.460938 0.0625 6.296875 0.0625 C 6.171875 0.0625 6.050781 0.0195312 5.9375 -0.0625 C 5.832031 -0.144531 5.753906 -0.253906 5.703125 -0.390625 L 5.125 -1.734375 L 1.84375 -1.734375 L 1.28125 -0.390625 C 1.226562 -0.242188 1.144531 -0.128906 1.03125 -0.046875 C 0.925781 0.0234375 0.8125 0.0625 0.6875 0.0625 C 0.5 0.0625 0.351562 0.0078125 0.25 -0.09375 C 0.15625 -0.195312 0.109375 -0.335938 0.109375 -0.515625 C 0.109375 -0.578125 0.117188 -0.644531 0.140625 -0.71875 L 2.875 -7.296875 C 2.9375 -7.453125 3.023438 -7.566406 3.140625 -7.640625 C 3.265625 -7.722656 3.398438 -7.757812 3.546875 -7.75 C 3.671875 -7.75 3.789062 -7.707031 3.90625 -7.625 C 4.019531 -7.550781 4.101562 -7.441406 4.15625 -7.296875 Z M 2.390625 -2.984375 L 4.59375 -2.984375 L 3.46875 -5.5625 Z M 2.390625 -2.984375 "/></g></g></g><g fill="rgb(42.749023%, 54.508972%, 52.159119%)" fill-opacity="1"><g transform="translate(58.108475, 18.145163)"><g><path d="M 5.078125 -1.28125 C 5.265625 -1.28125 5.421875 -1.21875 5.546875 -1.09375 C 5.671875 -0.976562 5.734375 -0.828125 5.734375 -0.640625 C 5.734375 -0.453125 5.671875 -0.296875 5.546875 -0.171875 C 5.421875 -0.0546875 5.265625 0 5.078125 0 L 1.5 0 C 1.300781 0 1.140625 -0.0625 1.015625 -0.1875 C 0.890625 -0.320312 0.828125 -0.484375 0.828125 -0.671875 L 0.828125 -7.03125 C 0.828125 -7.21875 0.890625 -7.375 1.015625 -7.5 C 1.148438 -7.632812 1.320312 -7.703125 1.53125 -7.703125 C 1.707031 -7.703125 1.863281 -7.632812 2 -7.5 C 2.132812 -7.375 2.203125 -7.21875 2.203125 -7.03125 L 2.203125 -1.28125 Z M 5.078125 -1.28125 "/></g></g></g><g fill="rgb(42.749023%, 54.508972%, 52.159119%)" fill-opacity="1"><g transform="translate(64.284352, 18.145163)"><g><path d="M 5.1875 -1.265625 C 5.375 -1.265625 5.53125 -1.195312 5.65625 -1.0625 C 5.789062 -0.9375 5.859375 -0.789062 5.859375 -0.625 C 5.859375 -0.445312 5.789062 -0.296875 5.65625 -0.171875 C 5.53125 -0.0546875 5.375 0 5.1875 0 L 1.5 0 C 1.300781 0 1.140625 -0.0625 1.015625 -0.1875 C 0.890625 -0.320312 0.828125 -0.484375 0.828125 -0.671875 L 0.828125 -7.03125 C 0.828125 -7.21875 0.890625 -7.375 1.015625 -7.5 C 1.140625 -7.632812 1.300781 -7.703125 1.5 -7.703125 L 5.1875 -7.703125 C 5.375 -7.703125 5.53125 -7.640625 5.65625 -7.515625 C 5.789062 -7.398438 5.859375 -7.242188 5.859375 -7.046875 C 5.859375 -6.867188 5.796875 -6.722656 5.671875 -6.609375 C 5.546875 -6.492188 5.382812 -6.4375 5.1875 -6.4375 L 2.203125 -6.4375 L 2.203125 -4.5625 L 4.6875 -4.5625 C 4.875 -4.5625 5.03125 -4.5 5.15625 -4.375 C 5.289062 -4.257812 5.359375 -4.109375 5.359375 -3.921875 C 5.359375 -3.734375 5.296875 -3.582031 5.171875 -3.46875 C 5.046875 -3.351562 4.882812 -3.296875 4.6875 -3.296875 L 2.203125 -3.296875 L 2.203125 -1.265625 Z M 5.1875 -1.265625 "/></g></g></g></svg>